<?xml version="1.0" encoding="UTF-8" standalone="no"?>
<svg
   width="16"
   height="16"
   fill="currentColor"
   class="bi bi-phone-fill"
   viewBox="0 0 16 16"
   version="1.1"
   id="svg4"
   sodipodi:docname="phone-fill.svg"
   xmlns:inkscape="http://www.inkscape.org/namespaces/inkscape"
   xmlns:sodipodi="http://sodipodi.sourceforge.net/DTD/sodipodi-0.dtd"
   xmlns:xlink="http://www.w3.org/1999/xlink"
   xmlns="http://www.w3.org/2000/svg"
   xmlns:svg="http://www.w3.org/2000/svg">
  <defs
     id="defs8">
    <linearGradient
       inkscape:collect="always"
       id="linearGradient1416">
      <stop
         style="stop-color:#000000;stop-opacity:1;"
         offset="0"
         id="stop1412" />
      <stop
         style="stop-color:#8b8b8b;stop-opacity:1;"
         offset="1"
         id="stop1414" />
    </linearGradient>
    <linearGradient
       inkscape:collect="always"
       id="linearGradient1408">
      <stop
         style="stop-color:#f5f5f5;stop-opacity:1;"
         offset="0"
         id="stop1404" />
      <stop
         style="stop-color:#dcdcdc;stop-opacity:1;"
         offset="1"
         id="stop1406" />
    </linearGradient>
    <linearGradient
       inkscape:collect="always"
       id="linearGradient1276">
      <stop
         style="stop-color:#000000;stop-opacity:1;"
         offset="0"
         id="stop1272" />
      <stop
         style="stop-color:#484848;stop-opacity:1;"
         offset="1"
         id="stop1274" />
    </linearGradient>
    <linearGradient
       inkscape:collect="always"
       xlink:href="#linearGradient1276"
       id="linearGradient1278"
       x1="8"
       y1="16"
       x2="8"
       y2="0"
       gradientUnits="userSpaceOnUse" />
    <linearGradient
       inkscape:collect="always"
       xlink:href="#linearGradient1408"
       id="linearGradient1410"
       x1="8"
       y1="2.7118645"
       x2="8"
       y2="13.288136"
       gradientUnits="userSpaceOnUse" />
    <linearGradient
       inkscape:collect="always"
       xlink:href="#linearGradient1416"
       id="linearGradient1418"
       x1="8"
       y1="16"
       x2="8"
       y2="0"
       gradientUnits="userSpaceOnUse" />
  </defs>
  <sodipodi:namedview
     id="namedview6"
     pagecolor="#ffffff"
     bordercolor="#000000"
     borderopacity="0.25"
     inkscape:showpageshadow="2"
     inkscape:pageopacity="0.0"
     inkscape:pagecheckerboard="0"
     inkscape:deskcolor="#d1d1d1"
     showgrid="false" />
  <rect
     style="fill:url(#linearGradient1278);fill-opacity:1;stroke-width:0.565"
     id="rect1194"
     width="16"
     height="16"
     x="0"
     y="0" />
  <path
     d="m 4.6949153,4.0338983 c 0,-0.7301392 0.5918947,-1.3220339 1.3220339,-1.3220339 h 3.9661016 c 0.7301392,-2e-7 1.3220342,0.5918946 1.3220342,1.3220339 v 7.9322037 c 0,0.730139 -0.591895,1.322034 -1.3220342,1.322034 H 6.0169492 c -0.7301392,0 -1.322034,-0.591895 -1.3220339,-1.322034 z"
     id="path2"
     style="fill:url(#linearGradient1410);fill-opacity:1;stroke-width:0.661017"
     sodipodi:nodetypes="sssssssss" />
  <path
     d="m 8.0677658,5.3550783 c 0.02269,-0.068076 0.118824,-0.068076 0.141516,0 l 0.133059,0.3995865 a 0.59618231,0.59618231 0 0 0 0.377306,0.3771008 l 0.399381,0.133058 c 0.06808,0.022692 0.06808,0.1188239 0,0.141516 l -0.399587,0.1330579 a 0.59618231,0.59618231 0 0 0 -0.3771,0.3773071 l -0.133059,0.3993802 a 0.07447121,0.07447121 0 0 1 -0.141516,0 L 7.9347078,6.9164983 A 0.59618231,0.59618231 0 0 0 7.5576068,6.5393975 L 7.1580198,6.4063396 a 0.07447121,0.07447121 0 0 1 0,-0.141516 l 0.399587,-0.133058 A 0.59618231,0.59618231 0 0 0 7.9347078,5.7546648 Z M 7.2708618,4.303198 a 0.04476525,0.04476525 0 0 1 0.08499,0 l 0.07983,0.2397107 c 0.03569,0.106859 0.119443,0.1906133 0.226302,0.2263017 l 0.239711,0.079835 a 0.04476525,0.04476525 0 0 1 0,0.084992 l -0.239711,0.079835 a 0.35770939,0.35770939 0 0 0 -0.226302,0.2263018 l -0.07983,0.2397106 a 0.04476525,0.04476525 0 0 1 -0.08499,0 L 7.1910268,5.240174 A 0.35770939,0.35770939 0 0 0 6.9647248,5.0138722 l -0.23971,-0.079835 a 0.04476525,0.04476525 0 0 1 0,-0.084992 l 0.23971,-0.079835 a 0.35770939,0.35770939 0 0 0 0.226302,-0.2263015 z m 1.458275,-0.2163997 a 0.02991226,0.02991226 0 0 1 0.05652,0 l 0.05323,0.1596695 c 0.02372,0.071377 0.07963,0.1272819 0.151005,0.1510055 l 0.15967,0.053223 a 0.02991226,0.02991226 0 0 1 0,0.056524 l -0.15967,0.053223 a 0.23847292,0.23847292 0 0 0 -0.151005,0.1510054 l -0.05323,0.1596697 a 0.02991226,0.02991226 0 0 1 -0.05652,0 L 8.6759118,4.7114487 A 0.23847292,0.23847292 0 0 0 8.5249068,4.5604433 l -0.159464,-0.053223 a 0.02991226,0.02991226 0 0 1 0,-0.056524 l 0.15967,-0.053223 c 0.07138,-0.023724 0.127282,-0.079629 0.151005,-0.1510055 l 0.05301,-0.1594633 z"
     id="path441"
     style="fill:url(#linearGradient1418);fill-opacity:1;stroke-width:0.206292" />
</svg>
